<?xml version="1.0" encoding="utf-8"?>
<!-- Generator: Adobe Illustrator 25.3.1, SVG Export Plug-In . SVG Version: 6.00 Build 0)  -->
<svg version="1.1" id="Шар_1" xmlns="http://www.w3.org/2000/svg" xmlns:xlink="http://www.w3.org/1999/xlink" x="0px" y="0px"
	 viewBox="0 0 1280 1024" style="enable-background:new 0 0 1280 1024;" xml:space="preserve">
<style type="text/css">
	.st0{fill:#007CB8;}
	.st1{fill:#006AA6;}
	.st2{fill:#0074B1;}
	.st3{fill:#007FBA;}
	.st4{fill:#FFFFFF;}
	.st5{fill:#0086B9;}
	.st6{fill:#3D4381;}
	.st7{font-family:'Rubik-Light';}
	.st8{font-size:128.7505px;}
</style>
<g>
	<path class="st0" d="M466.34,291.16l106.22-5.06c0,0,35.41-41.93,67.44-43.73c32.04-1.79,112.97,40.36,173.66,259.54h99.86
		c0,0-98.17-338.9-273.52-333.84C520.29,168.07,466.34,291.16,466.34,291.16z"/>
	<path class="st1" d="M866.34,328.09c-1.7-4.41,2.11-8.97,6.74-8.06c45.11,8.84,218.39,50.75,184.03,167.56
		c-39.43,134.04-294.03,258.81-294.03,258.81s-25.29,16.86-97.79-33.72c89.36-50.58,354.07-209.07,301.8-269.77
		C916.26,383.86,910.08,441.27,866.34,328.09z"/>
	<path class="st1" d="M951.92,650.29c0,0,77.56,428.26-510.88,48.9c0,0-28.66-25.29,13.49-89.36
		c57.68,41.2,405.27,275.67,413.09,114.67c0.55-11.25,5.6-21.82,14.15-29.15C892.35,686.27,911.46,673.97,951.92,650.29z"/>
	<path class="st2" d="M498.37,402.44c0,0-215.82,450.18,16.86,370.93c40.47,23.6,92.73,47.21,92.73,47.21
		s-453.55,193.9-219.19-382.74C398.94,424.59,392.51,405.32,498.37,402.44z"/>
	<path class="st3" d="M231.97,508.66c84.3,0,91.05-1.69,91.05-1.69c-28.66-96.11-40.47-112.97,419.83-123.08
		c-13.4-24.43-21.92-43.84-42.15-77.56C452.85,306.33,162.85,318.13,231.97,508.66z"/>
	<g>
		<path class="st4" d="M169.1,627.9c-21.78,0-39.5-17.72-39.5-39.5v-58.31c0-21.78,17.72-39.5,39.5-39.5h941.81
			c21.78,0,39.5,17.72,39.5,39.5v58.31c0,21.78-17.72,39.5-39.5,39.5H169.1z"/>
		<path class="st5" d="M1110.9,493.58c20.13,0,36.5,16.37,36.5,36.5v58.32c0,20.13-16.37,36.5-36.5,36.5H169.1
			c-20.13,0-36.5-16.37-36.5-36.5v-58.32c0-20.13,16.37-36.5,36.5-36.5H1110.9 M1110.9,487.58H169.1c-23.47,0-42.5,19.03-42.5,42.5
			v58.32c0,23.47,19.03,42.5,42.5,42.5h941.81c23.47,0,42.5-19.03,42.5-42.5v-58.32C1153.4,506.61,1134.38,487.58,1110.9,487.58
			L1110.9,487.58z"/>
	</g>
	<text transform="matrix(1 0 0 1 177.2026 606.293)" class="st6 st7 st8">ВЕКТОР-СТАЛЬ</text>
</g>
</svg>
